<?xml version="1.0" encoding="UTF-8"?>
<svg width="10px" height="17px" viewBox="0 0 10 17" version="1.1" xmlns="http://www.w3.org/2000/svg" xmlns:xlink="http://www.w3.org/1999/xlink">
    <!-- Generator: Sketch 52.5 (67469) - http://www.bohemiancoding.com/sketch -->
    <title>ion-social-facebook - Ionicons</title>
    <desc>Created with Sketch.</desc>
    <g id="Design" stroke="none" stroke-width="1" fill="none" fill-rule="evenodd">
        <g id="Contact" transform="translate(-775.000000, -852.000000)" fill="#FFFFFF">
            <g id="Group-7" transform="translate(757.000000, 838.000000)">
                <g id="Group-4">
                    <path d="M24.375,20 L27.125,20 L26.78125,22.75 L24.375,22.75 L24.375,31 L20.8085938,31 L20.8085938,22.75 L18.875,22.75 L18.875,20 L20.8085938,20 L20.8085938,18.1523438 C20.8085938,16.9492127 21.109372,16.0397166 21.7109375,15.4238281 C22.312503,14.8079396 23.3150971,14.5 24.71875,14.5 L27.125,14.5 L27.125,17.25 L25.6640625,17.25 C25.1197889,17.25 24.768881,17.3359366 24.6113281,17.5078125 C24.4537753,17.6796884 24.375,17.9661438 24.375,18.3671875 L24.375,20 Z" id="ion-social-facebook---Ionicons"></path>
                </g>
            </g>
        </g>
    </g>
</svg>