<?xml version="1.0" encoding="UTF-8"?>
<svg width="198px" height="75px" viewBox="0 0 198 75" version="1.1" xmlns="http://www.w3.org/2000/svg" xmlns:xlink="http://www.w3.org/1999/xlink">
    <!-- Generator: Sketch 52.5 (67469) - http://www.bohemiancoding.com/sketch -->
    <title>Group 62</title>
    <desc>Created with Sketch.</desc>
    <defs>
        <polygon id="path-1" points="0 0.310035294 109.281294 0.310035294 109.281294 14.5294118 0 14.5294118"></polygon>
    </defs>
    <g id="Design" stroke="none" stroke-width="1" fill="none" fill-rule="evenodd" opacity="0.76390439">
        <g id="First-screen" transform="translate(-1430.000000, -877.000000)">
            <g id="Group-62" transform="translate(1430.000000, 876.000000)">
                <g id="Group-12" transform="translate(0.000000, 0.954024)">
                    <g id="Group-3" transform="translate(0.000000, 60.352941)">
                        <mask id="mask-2" fill="white">
                            <use xlink:href="#path-1"></use>
                        </mask>
                        <g id="Clip-2"></g>
                        <path d="M106.541941,14.2079765 C107.129824,13.9933882 107.626059,13.6860353 108.030647,13.2881529 C108.435235,12.8891529 108.744824,12.4152706 108.959412,11.8653882 C109.174,11.3166235 109.281294,10.6996824 109.281294,10.0179176 L109.281294,4.91697647 C109.281294,4.28550588 109.170647,3.68868235 108.949353,3.12650588 C108.728059,2.56321176 108.412882,2.07368235 108.001588,1.6568 C107.591412,1.2388 107.095176,0.911329412 106.514,0.671035294 C105.931706,0.430741176 105.281235,0.310035294 104.560353,0.310035294 C103.865176,0.310035294 103.227,0.427388235 102.645824,0.660976471 C102.064647,0.895682353 101.565059,1.22091765 101.148176,1.6378 C100.731294,2.05468235 100.408294,2.54421176 100.181412,3.10638824 C99.9534118,3.66856471 99.8394118,4.2788 99.8394118,4.93709412 L99.8394118,10.0179176 C99.8394118,10.6873882 99.9444706,11.2976235 100.152353,11.8475059 C100.361353,12.3973882 100.664235,12.8712706 101.063235,13.2680353 C101.461118,13.6681529 101.954,13.9777412 102.541882,14.1979176 C103.129765,14.4180941 103.802588,14.5298588 104.560353,14.5298588 C105.293529,14.5298588 105.954059,14.4214471 106.541941,14.2079765 Z M102.996765,11.3356235 C102.649176,10.9500353 102.474824,10.4660941 102.474824,9.88491765 L102.474824,5.03209412 C102.474824,4.42521176 102.654765,3.91891765 103.015765,3.51432941 C103.375647,3.10974118 103.897588,2.90856471 104.579353,2.90856471 C105.236529,2.90856471 105.746176,3.1008 106.106059,3.48527059 C106.465941,3.87197647 106.645882,4.38721176 106.645882,5.03209412 L106.645882,9.9028 C106.645882,10.4716824 106.465941,10.9500353 106.106059,11.3356235 C105.746176,11.7200941 105.224235,11.9123294 104.541353,11.9123294 C103.859588,11.9123294 103.344353,11.7200941 102.996765,11.3356235 Z M88.692,14.3398588 L98.1338824,14.3398588 L98.1338824,11.8184471 L91.3274118,11.8184471 C91.3274118,11.5032706 91.4157059,11.2048588 91.5922941,10.9265647 C91.7688824,10.6482706 92.0002353,10.3878588 92.2841176,10.1397412 C92.5691176,9.89497647 92.8977059,9.65468235 93.2698824,9.42109412 C93.6431765,9.18638824 94.0254118,8.94944706 94.4177059,8.71027059 C94.8725882,8.43197647 95.3241176,8.14250588 95.7734118,7.84744706 C96.2215882,7.55015294 96.6261765,7.22156471 96.9860588,6.86168235 C97.3470588,6.50068235 97.641,6.10615294 97.8678824,5.67474118 C98.0958824,5.24556471 98.2087647,4.7538 98.2087647,4.19721176 C98.2087647,3.65403529 98.1014706,3.14550588 97.8868824,2.67162353 C97.6722941,2.19774118 97.356,1.78644706 96.9391176,1.43774118 C96.5222353,1.09127059 96.0159412,0.816329412 95.4224706,0.614035294 C94.8278824,0.410623529 94.1517059,0.310035294 93.3939412,0.310035294 C92.1801765,0.310035294 91.1564118,0.587211765 90.3226471,1.14491765 C89.4877647,1.70150588 88.8428824,2.45256471 88.388,3.40144706 L90.6635294,4.53921176 C90.9284118,3.9558 91.2827059,3.48527059 91.7252941,3.12650588 C92.1678824,2.76550588 92.7300588,2.58556471 93.4129412,2.58556471 C94.1081176,2.58556471 94.6356471,2.7398 94.9955294,3.05050588 C95.3554118,3.36009412 95.5364706,3.73562353 95.5364706,4.17709412 C95.5364706,4.44421176 95.4571176,4.68897647 95.2995294,4.91697647 C95.1408235,5.14497647 94.9295882,5.36962353 94.6635882,5.59091765 C94.3987059,5.81109412 94.0947059,6.03015294 93.7538235,6.24474118 C93.4129412,6.45932941 93.0586471,6.68062353 92.6920588,6.90862353 C92.2248824,7.19921176 91.7532353,7.5088 91.2793529,7.83738824 C90.8054706,8.16597647 90.3762941,8.52921176 89.9907059,8.92709412 C89.6051176,9.32609412 89.2921765,9.76421176 89.0518824,10.2459176 C88.8115882,10.7253882 88.692,11.2618588 88.692,11.8564471 L88.692,14.3398588 Z M78.3213529,14.3398588 L81.1076471,14.3398588 L87.6682353,0.498917647 L84.8808235,0.498917647 L78.3213529,14.3398588 Z M71.6568235,7.44732941 C71.3595294,7.31656471 71.1002353,7.13662353 70.8789412,6.90862353 C70.6587647,6.68062353 70.4810588,6.41797647 70.3480588,6.1218 C70.2161765,5.82450588 70.1491176,5.51156471 70.1491176,5.18297647 C70.1491176,4.84097647 70.2161765,4.52021176 70.3480588,4.21621176 C70.4810588,3.91332941 70.6587647,3.65068235 70.8789412,3.42827059 C71.1002353,3.20697647 71.3595294,3.03150588 71.6568235,2.89850588 C71.9541176,2.76550588 72.2670588,2.69844706 72.5956471,2.69844706 C72.9242353,2.69844706 73.2338235,2.76550588 73.5244118,2.89850588 C73.815,3.03150588 74.0675882,3.20697647 74.2821765,3.42827059 C74.4978824,3.65068235 74.6677647,3.90885882 74.7940588,4.20727059 C74.9214706,4.50232941 74.9840588,4.82309412 74.9840588,5.16285882 C74.9840588,5.50597647 74.9214706,5.82450588 74.7940588,6.1218 C74.6677647,6.41797647 74.4978824,6.68062353 74.2821765,6.90862353 C74.0675882,7.13662353 73.815,7.31656471 73.5244118,7.44732941 C73.2338235,7.58032941 72.9242353,7.64850588 72.5956471,7.64850588 C72.2670588,7.64850588 71.9541176,7.58032941 71.6568235,7.44732941 Z M72.9555294,14.3398588 L76.5007059,8.59627059 C76.8292941,8.11568235 77.0885882,7.57697647 77.2785882,6.98350588 C77.4674706,6.39003529 77.5624706,5.76415294 77.5624706,5.10585882 C77.5624706,4.43750588 77.4361765,3.81050588 77.1835882,3.23044706 C76.931,2.64815294 76.5834118,2.13962353 76.1408235,1.70374118 C75.6982353,1.26785882 75.1707059,0.925858824 74.5571176,0.679976471 C73.9446471,0.434094118 73.2718235,0.310035294 72.5386471,0.310035294 C71.8300588,0.310035294 71.1706471,0.427388235 70.5570588,0.660976471 C69.9445882,0.895682353 69.4159412,1.22762353 68.9744706,1.6568 C68.5318824,2.08597647 68.1842941,2.59450588 67.9317059,3.18350588 C67.678,3.76915294 67.5517059,4.41738824 67.5517059,5.12597647 C67.5517059,5.83456471 67.6690588,6.48168235 67.9026471,7.06844706 C68.1362353,7.65744706 68.4558824,8.16597647 68.8604706,8.59627059 C69.2650588,9.02432941 69.7355882,9.35627059 70.2731765,9.58985882 C70.8096471,9.82568235 71.3885882,9.94191765 72.0077647,9.94191765 C72.1217647,9.94191765 72.238,9.93632941 72.3587059,9.92291765 C72.4782941,9.90950588 72.6012353,9.89162353 72.7275294,9.8648 L69.8462353,14.3398588 L72.9555294,14.3398588 Z M56.6881765,14.3398588 L66.1300588,14.3398588 L66.1300588,11.8184471 L62.7737647,11.8184471 L62.7737647,0.498917647 L60.2333529,0.498917647 C60.2333529,0.752623529 60.1931176,1.0108 60.1104118,1.27791765 C60.0288235,1.5428 59.8891176,1.78644706 59.6935294,2.00774118 C59.4979412,2.22791765 59.2442353,2.41121176 58.9346471,2.55650588 C58.6250588,2.70291765 58.2428235,2.77556471 57.7879412,2.77556471 L57.6929412,2.77556471 L57.6929412,5.54397647 L57.9019412,5.54397647 C58.3311176,5.54397647 58.7580588,5.43444706 59.1816471,5.22097647 C59.6052353,5.00638824 59.9237647,4.73368235 60.1394706,4.40509412 L60.1394706,11.8184471 L56.6881765,11.8184471 L56.6881765,14.3398588 Z M52.2421765,14.2079765 C52.8300588,13.9933882 53.3262941,13.6860353 53.7308824,13.2881529 C54.1354706,12.8891529 54.4450588,12.4152706 54.6596471,11.8653882 C54.8742353,11.3166235 54.9815294,10.6996824 54.9815294,10.0179176 L54.9815294,4.91697647 C54.9815294,4.28550588 54.8708824,3.68868235 54.6507059,3.12650588 C54.4294118,2.56321176 54.1131176,2.07368235 53.7018235,1.6568 C53.2916471,1.2388 52.7954118,0.911329412 52.2142353,0.671035294 C51.6330588,0.430741176 50.9814706,0.310035294 50.2605882,0.310035294 C49.5654118,0.310035294 48.9272353,0.427388235 48.3460588,0.660976471 C47.7648824,0.895682353 47.2652941,1.22091765 46.8484118,1.6378 C46.4315294,2.05468235 46.1085294,2.54421176 45.8816471,3.10638824 C45.6536471,3.66856471 45.5407647,4.2788 45.5407647,4.93709412 L45.5407647,10.0179176 C45.5407647,10.6873882 45.6447059,11.2976235 45.8525882,11.8475059 C46.0615882,12.3973882 46.3644706,12.8712706 46.7634706,13.2680353 C47.1613529,13.6681529 47.6542353,13.9777412 48.2421176,14.1979176 C48.83,14.4180941 49.5028235,14.5298588 50.2605882,14.5298588 C50.9937647,14.5298588 51.6542941,14.4214471 52.2421765,14.2079765 Z M48.697,11.3356235 C48.3494118,10.9500353 48.1750588,10.4660941 48.1750588,9.88491765 L48.1750588,5.03209412 C48.1750588,4.42521176 48.3561176,3.91891765 48.716,3.51432941 C49.0758824,3.10974118 49.5978235,2.90856471 50.2795882,2.90856471 C50.9378824,2.90856471 51.4464118,3.1008 51.8062941,3.48527059 C52.1661765,3.87197647 52.3461176,4.38721176 52.3461176,5.03209412 L52.3461176,9.9028 C52.3461176,10.4716824 52.1661765,10.9500353 51.8062941,11.3356235 C51.4464118,11.7200941 50.9244706,11.9123294 50.2427059,11.9123294 C49.5598235,11.9123294 49.0445882,11.7200941 48.697,11.3356235 Z M34.3922353,14.3398588 L43.8341176,14.3398588 L43.8341176,11.8184471 L37.0276471,11.8184471 C37.0276471,11.5032706 37.1159412,11.2048588 37.2925294,10.9265647 C37.4702353,10.6482706 37.7004706,10.3878588 37.9854706,10.1397412 C38.2693529,9.89497647 38.5979412,9.65468235 38.9712353,9.42109412 C39.3434118,9.18638824 39.7256471,8.94944706 40.1179412,8.71027059 C40.5728235,8.43197647 41.0243529,8.14250588 41.4736471,7.84744706 C41.9218235,7.55015294 42.3264118,7.22156471 42.6862941,6.86168235 C43.0472941,6.50068235 43.3412353,6.10615294 43.5681176,5.67474118 C43.7961176,5.24556471 43.9101176,4.7538 43.9101176,4.19721176 C43.9101176,3.65403529 43.8028235,3.14550588 43.5871176,2.67162353 C43.3725294,2.19774118 43.0562353,1.78644706 42.6393529,1.43774118 C42.2224706,1.09127059 41.7172941,0.816329412 41.1227059,0.614035294 C40.5281176,0.410623529 39.8519412,0.310035294 39.0941765,0.310035294 C37.8804118,0.310035294 36.8566471,0.587211765 36.0228824,1.14491765 C35.188,1.70150588 34.5442353,2.45256471 34.0893529,3.40144706 L36.3637647,4.53921176 C36.6297647,3.9558 36.9829412,3.48527059 37.4255294,3.12650588 C37.8681176,2.76550588 38.4302941,2.58556471 39.1131765,2.58556471 C39.8083529,2.58556471 40.3358824,2.7398 40.6957647,3.05050588 C41.0567647,3.36009412 41.2367059,3.73562353 41.2367059,4.17709412 C41.2367059,4.44421176 41.1573529,4.68897647 40.9997647,4.91697647 C40.8410588,5.14497647 40.6298235,5.36962353 40.3638235,5.59091765 C40.0989412,5.81109412 39.7960588,6.03015294 39.4540588,6.24474118 C39.1131765,6.45932941 38.7588824,6.68062353 38.3922941,6.90862353 C37.9251176,7.19921176 37.4545882,7.5088 36.9795882,7.83738824 C36.5057059,8.16597647 36.0765294,8.52921176 35.6909412,8.92709412 C35.3053529,9.32609412 34.9924118,9.76421176 34.7521176,10.2459176 C34.5118235,10.7253882 34.3922353,11.2618588 34.3922353,11.8564471 L34.3922353,14.3398588 Z M14.8255882,14.3398588 L17.518,14.3398588 L20.3624118,4.67109412 L23.2247059,14.3398588 L25.8221176,14.3398588 L29.7282941,0.498917647 L27.0548824,0.498917647 L24.5144706,10.0369176 L21.6700588,0.498917647 L19.0726471,0.498917647 L16.2293529,10.0749176 L13.6509412,0.498917647 L10.9015294,0.498917647 L14.8255882,14.3398588 Z M6.23758824,4.25421176 L8.02023529,9.41103529 L4.45494118,9.41103529 L6.23758824,4.25421176 Z M0,14.3398588 L2.74941176,14.3398588 L3.58317647,11.9324471 L8.892,11.9324471 L9.72576471,14.3398588 L12.4751765,14.3398588 L7.56423529,0.498917647 L4.90982353,0.498917647 L0,14.3398588 Z" id="Fill-1" fill="#F7ADAF" mask="url(#mask-2)"></path>
                    </g>
                    <path d="M158.169747,14.0366412 C157.882512,13.5895824 157.515924,13.2185235 157.068865,12.9223471 C156.619571,12.6261706 156.114394,12.3937 155.549982,12.2249353 C154.986688,12.0539353 154.426747,11.9064059 153.872394,11.7789941 C153.352688,11.6560529 152.874335,11.5387 152.433982,11.4314059 C151.995865,11.3229941 151.615865,11.1989353 151.293982,11.0547588 C150.970982,10.9128176 150.715041,10.7328765 150.527276,10.5182882 C150.339512,10.3037 150.246747,10.0265235 150.246747,9.68452353 C150.246747,9.11340588 150.491512,8.61940588 150.984394,8.20811176 C151.477276,7.79793529 152.2071,7.58893529 153.173865,7.58893529 C154.014335,7.58893529 154.717335,7.72193529 155.281747,7.98122941 C155.846159,8.23940588 156.360276,8.63840588 156.826335,9.17375882 L158.411159,7.88622941 C157.784159,7.1877 157.027512,6.66911176 156.141218,6.32822941 C155.254924,5.98846471 154.265806,5.81746471 153.173865,5.81746471 C152.402688,5.81746471 151.709747,5.92475882 151.091688,6.14046471 C150.473629,6.35505294 149.950571,6.64675882 149.521394,7.01334706 C149.0911,7.37993529 148.764747,7.79793529 148.5401,8.26175882 C148.315453,8.72781765 148.204806,9.21175882 148.204806,9.71246471 C148.204806,10.3763471 148.342276,10.9206412 148.620571,11.3509353 C148.898865,11.7789941 149.252041,12.1344059 149.682335,12.4127 C150.111512,12.6909941 150.598806,12.9134059 151.145335,13.0832882 C151.691865,13.2542882 152.233924,13.4018176 152.771512,13.5258765 C153.235335,13.6342882 153.692453,13.7404647 154.140629,13.8488765 C154.587688,13.9561706 154.991159,14.0869353 155.349924,14.2389353 C155.706453,14.3898176 155.997041,14.5820529 156.221688,14.8145235 C156.446335,15.0481118 156.5581,15.3532294 156.5581,15.7287588 C156.5581,16.3557588 156.289865,16.8888765 155.752276,17.3269941 C155.215806,17.7673471 154.409982,17.9852882 153.334806,17.9852882 C152.385924,17.9852882 151.574512,17.8064647 150.903924,17.4477 C150.232218,17.0900529 149.618629,16.5882294 149.064276,15.9433471 L147.425806,17.3940529 C148.105335,18.1998765 148.925688,18.8045235 149.883512,19.2079941 C150.840218,19.6092294 151.955629,19.8115235 153.227512,19.8115235 C154.121629,19.8115235 154.9051,19.6941706 155.576806,19.4617 C156.248512,19.2292294 156.807335,18.9218765 157.256629,18.5351706 C157.703688,18.1507 158.038982,17.7159353 158.262512,17.2319941 C158.487159,16.7491706 158.598924,16.2484647 158.598924,15.7287588 C158.598924,15.0481118 158.455865,14.4837 158.169747,14.0366412" id="Fill-4" fill="#F7ADAF"></path>
                    <path d="M137.361729,5.96532941 C136.341318,5.96532941 135.440494,6.17209412 134.661494,6.58338824 C133.882494,6.9958 133.259965,7.54232941 132.796141,8.22185882 L132.796141,6.23356471 L130.7542,6.23356471 L130.7542,19.6632118 L132.822965,19.6632118 L132.822965,12.2230353 C132.822965,11.6150353 132.930259,11.0416824 133.144847,10.5040941 C133.359435,9.96762353 133.655612,9.50268235 134.031141,9.10815294 C134.407788,8.71474118 134.854847,8.40627059 135.374553,8.18050588 C135.892024,7.95809412 136.456435,7.84521176 137.066671,7.84521176 C138.408965,7.84521176 139.415965,8.24532941 140.087671,9.04109412 C140.758259,9.83797647 141.094671,10.8896824 141.094671,12.1962118 L141.094671,19.6632118 L143.190259,19.6632118 L143.190259,12.1962118 C143.190259,10.2459176 142.670553,8.71921176 141.632259,7.61832941 C140.592847,6.51632941 139.168965,5.96532941 137.361729,5.96532941" id="Fill-6" fill="#F7ADAF"></path>
                    <path d="M125.998165,7.97899412 C125.371165,7.35311176 124.633518,6.86022941 123.781871,6.50258235 C122.931341,6.14493529 122.022694,5.96499412 121.055929,5.96499412 C120.089165,5.96499412 119.184988,6.14493529 118.3434,6.50258235 C117.500694,6.86022941 116.763047,7.35311176 116.127106,7.97899412 C115.491165,8.60711176 114.994929,9.34699412 114.637282,10.1952882 C114.278518,11.0458176 114.099694,11.9634059 114.099694,12.9480529 C114.099694,13.9338176 114.278518,14.8514059 114.637282,15.7019353 C114.994929,16.5524647 115.491165,17.2912294 116.127106,17.9182294 C116.763047,18.5441118 117.500694,19.0381118 118.3434,19.3957588 C119.184988,19.7522882 120.089165,19.9311118 121.055929,19.9311118 C122.022694,19.9311118 122.931341,19.7522882 123.781871,19.3957588 C124.633518,19.0381118 125.371165,18.5441118 125.998165,17.9182294 C126.625165,17.2912294 127.1214,16.5524647 127.487988,15.7019353 C127.855694,14.8514059 128.038988,13.9338176 128.038988,12.9480529 C128.038988,11.9634059 127.855694,11.0458176 127.487988,10.1952882 C127.1214,9.34699412 126.625165,8.60711176 125.998165,7.97899412 M125.567871,14.9363471 C125.317518,15.5622294 124.973282,16.1054059 124.534047,16.5625235 C124.095929,17.0185235 123.576224,17.3795235 122.976047,17.6477588 C122.376988,17.9182294 121.736576,18.0523471 121.055929,18.0523471 C120.375282,18.0523471 119.740459,17.9182294 119.149224,17.6477588 C118.557988,17.3795235 118.042753,17.0185235 117.603518,16.5625235 C117.166518,16.1054059 116.822282,15.5622294 116.570812,14.9363471 C116.319341,14.3093471 116.194165,13.6465824 116.194165,12.9480529 C116.194165,12.2495235 116.319341,11.5878765 116.570812,10.9608765 C116.822282,10.3349941 117.166518,9.79293529 117.603518,9.33693529 C118.042753,8.88093529 118.557988,8.51658235 119.149224,8.24722941 C119.740459,7.97899412 120.375282,7.84599412 121.055929,7.84599412 C121.736576,7.84599412 122.376988,7.97899412 122.976047,8.24722941 C123.576224,8.51658235 124.095929,8.88093529 124.534047,9.33693529 C124.973282,9.79293529 125.317518,10.3349941 125.567871,10.9608765 C125.819341,11.5878765 125.944518,12.2495235 125.944518,12.9480529 C125.944518,13.6465824 125.819341,14.3093471 125.567871,14.9363471" id="Fill-8" fill="#F7ADAF"></path>
                    <path d="M108.824624,0.163176471 C108.358565,0.163176471 107.969624,0.321882353 107.656682,0.634823529 C107.342624,0.946647059 107.186153,1.33782353 107.186153,1.80276471 C107.186153,2.26882353 107.338153,2.66111765 107.643271,2.983 C107.947271,3.30711765 108.340682,3.46694118 108.824624,3.46694118 C109.308565,3.46694118 109.706447,3.30711765 110.020506,2.983 C110.333447,2.66111765 110.489918,2.26882353 110.489918,1.80276471 C110.489918,1.33782353 110.333447,0.946647059 110.020506,0.634823529 C109.706447,0.321882353 109.308565,0.163176471 108.824624,0.163176471" id="Fill-10" fill="#F7ADAF"></path>
                </g>
                <polygon id="Fill-13" fill="#F7ADAF" points="107.776941 20.6167882 109.871412 20.6167882 109.871412 7.18602353 107.776941 7.18602353"></polygon>
                <g id="Group-22" transform="translate(58.117647, 0.954024)" fill="#F7ADAF">
                    <path d="M41.4863882,1.9095 L39.3919176,3.06402941 L39.3919176,6.23367647 L37.0817412,6.23367647 L37.0817412,8.11355882 L39.3919176,8.11355882 L39.3919176,14.5333235 C39.3919176,15.5369706 39.4668,16.3696176 39.6210353,17.0312647 C39.7719176,17.6951471 40.0356824,18.2182059 40.4123294,18.6026765 C40.7878588,18.9882647 41.2941529,19.2609706 41.9300941,19.4219118 C42.5660353,19.5828529 43.3763294,19.6633235 44.3598588,19.6633235 L44.6560353,19.6633235 L44.6560353,17.7029706 C43.9932706,17.7029706 43.4568,17.6683235 43.0443882,17.5956765 C42.6319765,17.5241471 42.3100941,17.3721471 42.0776235,17.1385588 C41.8451529,16.9060882 41.6886824,16.5797353 41.6082118,16.1595 C41.5277412,15.7392647 41.4863882,15.1871471 41.4863882,14.5065 L41.4863882,8.11355882 L44.6560353,8.11355882 L44.6560353,6.23367647 L41.4863882,6.23367647 L41.4863882,1.9095 Z" id="Fill-14"></path>
                    <path d="M30.3596529,8.43633529 C30.0735353,8.04180588 29.7337706,7.69421765 29.3392412,7.3891 C28.9458294,7.0851 28.5300647,6.82468824 28.0908294,6.6101 C27.6515941,6.39551176 27.2045353,6.23345294 26.7474176,6.12615882 C26.2914176,6.01886471 25.8477118,5.96521765 25.4174176,5.96521765 C24.4160059,5.96521765 23.4928294,6.14962941 22.6512412,6.51621765 C21.8107706,6.88280588 21.0854176,7.38574706 20.4751824,8.02057059 C19.8671824,8.65539412 19.3933,9.39415882 19.0524176,10.2357471 C18.7126529,11.0784529 18.5416529,11.9815118 18.5416529,12.9482765 C18.5416529,13.9150412 18.7171235,14.8214529 19.0658294,15.6619235 C19.4156529,16.5035118 19.8940059,17.2433941 20.5020059,17.8782176 C21.1122412,18.5130412 21.8375941,19.0159824 22.6780647,19.3825706 C23.5196529,19.7491588 24.4327706,19.9324529 25.4174176,19.9324529 C25.8477118,19.9324529 26.2914176,19.8788059 26.7474176,19.7703941 C27.2045353,19.6631 27.6515941,19.5066294 28.0908294,19.3021 C28.5300647,19.0964529 28.9458294,18.8405118 29.3392412,18.5353941 C29.7337706,18.2325118 30.0735353,17.8737471 30.3596529,17.4613353 L30.3596529,19.6631 L32.4273,19.6631 L32.4273,6.23345294 L30.3596529,6.23345294 L30.3596529,8.43633529 Z M30.1718882,14.9354529 C29.9215353,15.5635706 29.5728294,16.1056294 29.1246529,16.5616294 C28.6764765,17.0187471 28.1444765,17.3808647 27.5264176,17.6491 C26.9094765,17.9162176 26.2422412,18.0514529 25.5247118,18.0514529 C24.8451824,18.0514529 24.2058882,17.9162176 23.6057118,17.6491 C23.0055353,17.3808647 22.4869471,17.0187471 22.0477118,16.5616294 C21.6084765,16.1056294 21.2642412,15.5635706 21.0127706,14.9354529 C20.7635353,14.3106882 20.6361235,13.6468059 20.6361235,12.9482765 C20.6361235,12.2508647 20.7635353,11.5881 21.0127706,10.9611 C21.2642412,10.3352176 21.6084765,9.79315882 22.0477118,9.33715882 C22.4869471,8.87892353 23.0055353,8.51680588 23.6057118,8.24857059 C24.2058882,7.97921765 24.8451824,7.8451 25.5247118,7.8451 C26.2422412,7.8451 26.9094765,7.97921765 27.5264176,8.24857059 C28.1444765,8.51680588 28.6764765,8.88339412 29.1246529,9.34833529 C29.5728294,9.81439412 29.9215353,10.3575706 30.1718882,10.9745118 C30.4233588,11.5925706 30.5474176,12.2508647 30.5474176,12.9482765 C30.5474176,13.6468059 30.4233588,14.3106882 30.1718882,14.9354529 Z" id="Fill-16"></path>
                    <path d="M12.3675471,6.77081765 C11.6690176,7.12958235 11.1135471,7.64928824 10.7022529,8.32993529 L10.7022529,6.23434706 L8.63460588,6.23434706 L8.63460588,19.6628765 L10.7290765,19.6628765 L10.7290765,12.7077588 C10.7290765,11.1318765 11.0420176,9.9807 11.6690176,9.25646471 C12.2949,8.53111176 13.3343118,8.16787647 14.7850176,8.16787647 L16.1004882,8.16787647 L16.1004882,6.23434706 L14.8654882,6.23434706 C13.8987235,6.23434706 13.0660765,6.41428824 12.3675471,6.77081765" id="Fill-18"></path>
                    <path d="M2.0463,0.163176471 C1.58024118,0.163176471 1.19018235,0.321882353 0.877241176,0.634823529 C0.5643,0.946647059 0.407829412,1.33782353 0.407829412,1.80276471 C0.407829412,2.26882353 0.559829412,2.66111765 0.864947059,2.983 C1.16782941,3.30711765 1.56235882,3.46694118 2.0463,3.46694118 C2.53024118,3.46694118 2.92812353,3.30711765 3.24106471,2.983 C3.55400588,2.66111765 3.71159412,2.26882353 3.71159412,1.80276471 C3.71159412,1.33782353 3.55400588,0.946647059 3.24106471,0.634823529 C2.92812353,0.321882353 2.53024118,0.163176471 2.0463,0.163176471" id="Fill-20"></path>
                </g>
                <polygon id="Fill-23" fill="#F7ADAF" points="59.1168235 20.6167882 61.2112941 20.6167882 61.2112941 7.18602353 59.1168235 7.18602353"></polygon>
                <g id="Group-32" transform="translate(1.117647, 0.954024)" fill="#F7ADAF">
                    <path d="M51.8115471,8.02057059 C51.2013118,7.38574706 50.4759588,6.88280588 49.6354882,6.51621765 C48.7939,6.14962941 47.8707235,5.96521765 46.8693118,5.96521765 C46.4401353,5.96521765 45.9908412,6.01886471 45.5270176,6.12615882 C45.0609588,6.23345294 44.6083118,6.39439412 44.1690765,6.6101 C43.7298412,6.82468824 43.3196647,7.0851 42.9340765,7.3891 C42.5484882,7.6931 42.2131941,8.04404118 41.9270765,8.43633529 L41.9270765,6.23345294 L39.9399,6.23345294 L39.9399,25.8403353 L41.9539,25.8403353 L41.9539,17.6222765 C42.5093706,18.4102176 43.2291353,18.9913941 44.1154294,19.3680412 C45.0017235,19.7435706 45.9204294,19.9313353 46.8693118,19.9313353 C47.8539588,19.9313353 48.7670765,19.7480412 49.6086647,19.3814529 C50.4491353,19.0159824 51.1744882,18.5130412 51.7847235,17.8782176 C52.3927235,17.2422765 52.8721941,16.5035118 53.2209,15.6608059 C53.5696059,14.8203353 53.7450765,13.9150412 53.7450765,12.9482765 C53.7450765,11.9815118 53.5751941,11.0773353 53.2354294,10.2357471 C52.8934294,9.39527647 52.4195471,8.65539412 51.8115471,8.02057059 M51.2739588,14.9354529 C51.0236059,15.5635706 50.6782529,16.1056294 50.2390176,16.5616294 C49.7997824,17.0187471 49.2823118,17.3797471 48.6821353,17.6491 C48.0808412,17.9173353 47.4415471,18.0514529 46.7620176,18.0514529 C46.0444882,18.0514529 45.3783706,17.9173353 44.7603118,17.6491 C44.1422529,17.3797471 43.6102529,17.0187471 43.1631941,16.5616294 C42.7139,16.1056294 42.3651941,15.5635706 42.1159588,14.9354529 C41.8644882,14.3106882 41.7393118,13.6468059 41.7393118,12.9482765 C41.7393118,12.2497471 41.8644882,11.5925706 42.1159588,10.9745118 C42.3651941,10.3575706 42.7139,9.81551176 43.1631941,9.34945294 C43.6102529,8.88451176 44.1422529,8.51680588 44.7603118,8.24857059 C45.3783706,7.97921765 46.0444882,7.8451 46.7620176,7.8451 C47.4415471,7.8451 48.0808412,7.97921765 48.6821353,8.24857059 C49.2823118,8.51680588 49.7997824,8.88115882 50.2390176,9.33715882 C50.6782529,9.79315882 51.0236059,10.3352176 51.2739588,10.9611 C51.5243118,11.5881 51.6506059,12.2497471 51.6506059,12.9482765 C51.6506059,13.6468059 51.5243118,14.3106882 51.2739588,14.9354529" id="Fill-24"></path>
                    <path d="M33.9816118,13.0433882 C33.5334353,12.7483294 33.0271412,12.5158588 32.4627294,12.3448588 C31.8994353,12.1738588 31.3394941,12.0274471 30.7851412,11.9011529 C30.2654353,11.7759765 29.7870824,11.6597412 29.3478471,11.5513294 C28.9086118,11.4440353 28.5297294,11.3199765 28.2067294,11.1758 C27.8848471,11.0338588 27.6289059,10.8539176 27.4411412,10.6382118 C27.2522588,10.4236235 27.1594941,10.1475647 27.1594941,9.80556471 C27.1594941,9.23444706 27.4042588,8.74156471 27.8971412,8.32915294 C28.3900235,7.91785882 29.1198471,7.71109412 30.0866118,7.71109412 C30.9270824,7.71109412 31.6300824,7.84185882 32.1944941,8.10115294 C32.7589059,8.36044706 33.2741412,8.75832941 33.7402,9.2948 L35.3250235,8.00615294 C34.6969059,7.30762353 33.9402588,6.79015294 33.0539647,6.44815294 C32.1676706,6.10950588 31.1785529,5.93850588 30.0866118,5.93850588 C29.3165529,5.93850588 28.6224941,6.0458 28.0044353,6.26038824 C27.3863765,6.47497647 26.8644353,6.7678 26.4341412,7.13438824 C26.0049647,7.50097647 25.6774941,7.91785882 25.4528471,8.3828 C25.2282,8.84885882 25.1186706,9.33168235 25.1186706,9.83238824 C25.1186706,10.4962706 25.2550235,11.0416824 25.5333176,11.4708588 C25.8116118,11.9011529 26.1659059,12.2554471 26.5950824,12.5326235 C27.0253765,12.8109176 27.5115529,13.0344471 28.0580824,13.2043294 C28.6046118,13.3753294 29.1466706,13.5217412 29.6842588,13.6469176 C30.1480824,13.7542118 30.6052,13.8603882 31.0544941,13.9688 C31.5015529,14.0760941 31.9039059,14.2079765 32.2626706,14.3588588 C32.6192,14.5097412 32.9109059,14.7042118 33.1344353,14.9355647 C33.3590824,15.1702706 33.4708471,15.4731529 33.4708471,15.8498 C33.4708471,16.4768 33.2026118,17.0088 32.6650235,17.4469176 C32.1285529,17.8872706 31.3227294,18.1052118 30.2486706,18.1052118 C29.2986706,18.1052118 28.4883765,17.9275059 27.8166706,17.5687412 C27.1449647,17.2110941 26.5324941,16.7092706 25.9781412,16.0643882 L24.3396706,17.5150941 C25.0180824,18.3198 25.8384353,18.9255647 26.7962588,19.3279176 C27.7529647,19.7313882 28.8683765,19.9314471 30.1402588,19.9314471 C31.0354941,19.9314471 31.8189647,19.8152118 32.4906706,19.5827412 C33.1612588,19.3502706 33.7212,19.0429176 34.1693765,18.6562118 C34.6164353,18.2717412 34.9517294,17.8369765 35.1763765,17.3519176 C35.3999059,16.8702118 35.5127882,16.3695059 35.5127882,15.8498 C35.5127882,15.1702706 35.3686118,14.6047412 35.0824941,14.1576824 C34.7952588,13.7106235 34.4286706,13.3384471 33.9816118,13.0433882" id="Fill-26"></path>
                    <path d="M14.6749294,5.96532941 C13.6545176,5.96532941 12.7548118,6.17209412 11.9769294,6.58338824 C11.1979294,6.9958 10.5754,7.54232941 10.1093412,8.22185882 L10.1093412,6.23356471 L8.0674,6.23356471 L8.0674,19.6632118 L10.1361647,19.6632118 L10.1361647,12.2230353 C10.1361647,11.6150353 10.2434588,11.0416824 10.4580471,10.5040941 C10.6726353,9.96762353 10.9688118,9.50268235 11.3443412,9.10815294 C11.7198706,8.71474118 12.1680471,8.40627059 12.6877529,8.18050588 C13.2074588,7.95809412 13.7707529,7.84521176 14.3798706,7.84521176 C15.7221647,7.84521176 16.7302824,8.24532941 17.4019882,9.04109412 C18.0736941,9.83797647 18.4078706,10.8896824 18.4078706,12.1962118 L18.4078706,19.6632118 L20.5034588,19.6632118 L20.5034588,12.1962118 C20.5034588,10.2459176 19.9837529,8.71921176 18.9454588,7.61832941 C17.9071647,6.51632941 16.4844,5.96532941 14.6749294,5.96532941" id="Fill-28"></path>
                    <path d="M2.64435294,0.163176471 C2.17829412,0.163176471 1.78935294,0.321882353 1.47641176,0.634823529 C1.16235294,0.946647059 1.00588235,1.33782353 1.00588235,1.80276471 C1.00588235,2.26882353 1.15788235,2.66111765 1.463,2.983 C1.767,3.30711765 2.16041176,3.46694118 2.64435294,3.46694118 C3.12829412,3.46694118 3.52617647,3.30711765 3.84023529,2.983 C4.15317647,2.66111765 4.30964706,2.26882353 4.30964706,1.80276471 C4.30964706,1.33782353 4.15317647,0.946647059 3.84023529,0.634823529 C3.52617647,0.321882353 3.12829412,0.163176471 2.64435294,0.163176471" id="Fill-30"></path>
                </g>
                <polygon id="Fill-33" fill="#F7ADAF" points="2.71476471 20.6167882 4.80923529 20.6167882 4.80923529 7.18602353 2.71476471 7.18602353"></polygon>
                <g id="Group-44" transform="translate(101.705882, 4.306965)" fill="#F7ADAF">
                    <path d="M67.9606529,40.1364941 C66.3266529,39.4837882 64.9821235,38.6388471 63.9259471,37.5994353 C62.8686529,36.5622588 62.0896529,35.4099647 61.5900647,34.1425529 C61.0915941,32.8740235 60.8412412,31.6256118 60.8412412,30.3950824 C60.8412412,27.9742588 61.4257706,25.8898471 62.6004176,24.1396118 C63.7705941,22.3916118 65.4325353,20.9610235 67.5862412,19.8467294 C68.5071824,20.8459059 69.5454765,21.8830824 70.6988882,22.9593765 L84.6482412,36.9087294 C83.1885941,38.1772588 81.5445353,39.1965529 79.7205353,39.9643765 C77.8943,40.7333176 75.9238882,41.1177882 73.8115353,41.1177882 C71.5438294,41.1177882 69.5924176,40.7903176 67.9606529,40.1364941 Z M91.2770059,43.4212588 L95.7744176,43.4212588 L88.9724176,36.6784941 C90.0464765,35.4490824 91.0087706,34.1324941 91.8537118,32.7298471 C92.6997706,31.3272 93.4105941,29.8966118 93.9873,28.4358471 C94.5640059,26.9750824 95.0043588,25.5154353 95.3128294,24.0546706 C95.6190647,22.5939059 95.7744176,21.1722588 95.7744176,19.7886118 L95.7744176,18.4619647 L84.3017706,18.4619647 L84.3017706,21.5757294 L92.5466529,21.5757294 C92.3533,23.8043176 91.7765941,26.0619647 90.8165353,28.3486706 C89.8553588,30.6364941 88.5678294,32.7197882 86.9550647,34.6030235 L73.3499471,20.9990235 C72.1194176,19.8087294 71.0632412,18.7413765 70.1791824,17.7992 C69.2962412,16.8592588 68.5653,15.9740824 67.9885941,15.1481412 C67.4118882,14.3222 66.9894176,13.5141412 66.7200647,12.7273176 C66.4518294,11.9393765 66.3177118,11.1022588 66.3177118,10.2193176 C66.3177118,9.33414118 66.4797706,8.49925882 66.8072412,7.71131765 C67.1324765,6.92449412 67.6052412,6.22261176 68.2199471,5.60678824 C68.8346529,4.99431765 69.5834765,4.51372941 70.4675353,4.16614118 C71.3515941,3.82190588 72.3496529,3.64755294 73.4650647,3.64755294 C75.1180647,3.64755294 76.5397118,4.0432 77.7311235,4.82890588 C78.9225353,5.61796471 79.8635941,6.55008235 80.5565353,7.62637647 L83.2657118,5.83925882 C82.3805353,4.45449412 81.1030647,3.2642 79.4310647,2.26502353 C77.7590647,1.26472941 75.7718882,0.765141176 73.4650647,0.765141176 C71.7729471,0.765141176 70.2842412,1.02443529 68.9967118,1.54525882 C67.7091824,2.06272941 66.6150059,2.75455294 65.7119471,3.61961176 C64.8088882,4.48355294 64.1282412,5.48384706 63.6666529,6.61602353 C63.2050647,7.74931765 62.9748294,8.95190588 62.9748294,10.2193176 C62.9748294,11.6420824 63.2050647,12.9284941 63.6666529,14.0819059 C64.1282412,15.2353176 64.7988294,16.3864941 65.6840059,17.5399059 C63.2240647,18.8084353 61.2447118,20.5374353 59.7470647,22.7291412 C58.2471824,24.9186118 57.4983588,27.4746706 57.4983588,30.3950824 C57.4983588,31.9709647 57.8045941,33.5658471 58.4193,35.1786118 C59.0340059,36.7936118 59.9963,38.2532588 61.3028294,39.5586706 C62.6082412,40.8674353 64.2903,41.9437294 66.3456529,42.7886706 C68.4010059,43.6324941 70.8900059,44.0560824 73.8115353,44.0560824 C76.3474765,44.0560824 78.6911824,43.5944941 80.8437706,42.6735529 C82.9952412,41.7514941 84.9555941,40.5030824 86.7237118,38.9260824 L91.2770059,43.4212588 Z" id="Fill-34"></path>
                    <path d="M52.0565353,38.1664176 C51.7693,37.7204765 51.4027118,37.3494176 50.9556529,37.0521235 C50.5063588,36.7570647 50.0011824,36.5245941 49.4367706,36.3547118 C48.8734765,36.1848294 48.3135353,36.0373 47.7591824,35.9098882 C47.2394765,35.7858294 46.7600059,35.6695941 46.3207706,35.5611824 C45.8815353,35.4538882 45.5026529,35.3287118 45.1807706,35.1845353 C44.8577706,35.0425941 44.6018294,34.8626529 44.4140647,34.6491824 C44.2263,34.4334765 44.1335353,34.1563 44.1335353,33.8154176 C44.1335353,33.2443 44.3783,32.7503 44.8711824,32.3378882 C45.3640647,31.9277118 46.0938882,31.7198294 47.0606529,31.7198294 C47.9011235,31.7198294 48.6041235,31.8528294 49.1685353,32.1110059 C49.7329471,32.3691824 50.2470647,32.7681824 50.7131235,33.3046529 L52.2979471,32.0160059 C51.6709471,31.3174765 50.9143,30.7988882 50.0280059,30.4591235 C49.1417118,30.1193588 48.1525941,29.9472412 47.0606529,29.9472412 C46.2894765,29.9472412 45.5965353,30.0545353 44.9784765,30.2713588 C44.3604176,30.4848294 43.8373588,30.7776529 43.4081824,31.1442412 C42.9778882,31.5097118 42.6515353,31.9277118 42.4268882,32.3915353 C42.2022412,32.8575941 42.0915941,33.3426529 42.0915941,33.8433588 C42.0915941,34.5072412 42.2290647,35.0504176 42.5073588,35.4818294 C42.7856529,35.9098882 43.1388294,36.2653 43.5691235,36.5435941 C43.9983,36.8218882 44.4855941,37.0431824 45.0321235,37.2141824 C45.5786529,37.3851824 46.1207118,37.5327118 46.6583,37.6556529 C47.1221235,37.7651824 47.5792412,37.8713588 48.0274176,37.9786529 C48.4744765,38.0870647 48.8779471,38.2167118 49.2367118,38.3698294 C49.5932412,38.5207118 49.8838294,38.7129471 50.1084765,38.9454176 C50.3331235,39.1790059 50.4448882,39.4841235 50.4448882,39.8596529 C50.4448882,40.4855353 50.1766529,41.0197706 49.6390647,41.4578882 C49.1014765,41.8982412 48.2967706,42.1150647 47.2215941,42.1150647 C46.2727118,42.1150647 45.4613,41.9362412 44.7907118,41.5785941 C44.1190059,41.2209471 43.5054176,40.7180059 42.9510647,40.0731235 L41.3125941,41.5238294 C41.9921235,42.3307706 42.8124765,42.9354176 43.7691824,43.3377706 C44.7270059,43.7401235 45.8424176,43.9413 47.1143,43.9413 C48.0084176,43.9413 48.7918882,43.8239471 49.4635941,43.5914765 C50.1353,43.3601235 50.6941235,43.0516529 51.1434176,42.6660647 C51.5904765,42.2815941 51.9257706,41.8457118 52.1493,41.3628882 C52.3739471,40.8800647 52.4857118,40.3782412 52.4857118,39.8596529 C52.4857118,39.1790059 52.3426529,38.6145941 52.0565353,38.1664176" id="Fill-36"></path>
                    <path d="M31.6240471,29.9750706 C30.6036353,29.9750706 29.7028118,30.1818353 28.9238118,30.5931294 C28.1448118,31.0055412 27.5222824,31.5520706 27.0584588,32.2316 L27.0584588,30.2433059 L25.0165176,30.2433059 L25.0165176,43.6729529 L27.0852824,43.6729529 L27.0852824,36.2327765 C27.0852824,35.6247765 27.1925765,35.0514235 27.4071647,34.5138353 C27.6217529,33.9773647 27.9179294,33.5124235 28.2934588,33.1178941 C28.6701059,32.7244824 29.1171647,32.4160118 29.6368706,32.1902471 C30.1543412,31.9678353 30.7187529,31.8549529 31.3289882,31.8549529 C32.6712824,31.8549529 33.6782824,32.2550706 34.3499882,33.0508353 C35.0205765,33.8477176 35.3569882,34.8994235 35.3569882,36.2059529 L35.3569882,43.6729529 L37.4525765,43.6729529 L37.4525765,36.2059529 C37.4525765,34.2556588 36.9328706,32.7289529 35.8945765,31.6280706 C34.8551647,30.5260706 33.4312824,29.9750706 31.6240471,29.9750706" id="Fill-38"></path>
                    <path d="M18.8960588,31.9888471 C18.2690588,31.3629647 17.5314118,30.8700824 16.6797647,30.5124353 C15.8292353,30.1547882 14.9205882,29.9748471 13.9538235,29.9748471 C12.9870588,29.9748471 12.0828824,30.1547882 11.2412941,30.5124353 C10.3985882,30.8700824 9.66094118,31.3629647 9.025,31.9888471 C8.38905882,32.6169647 7.89282353,33.3568471 7.53517647,34.2051412 C7.17641176,35.0556706 6.99758824,35.9732588 6.99758824,36.9579059 C6.99758824,37.9436706 7.17641176,38.8612588 7.53517647,39.7117882 C7.89282353,40.5612 8.38905882,41.3010824 9.025,41.9280824 C9.66094118,42.5539647 10.3985882,43.0479647 11.2412941,43.4044941 C12.0828824,43.7621412 12.9870588,43.9409647 13.9538235,43.9409647 C14.9205882,43.9409647 15.8292353,43.7621412 16.6797647,43.4044941 C17.5314118,43.0479647 18.2690588,42.5539647 18.8960588,41.9280824 C19.5230588,41.3010824 20.0192941,40.5612 20.3858824,39.7117882 C20.7535882,38.8612588 20.9368824,37.9436706 20.9368824,36.9579059 C20.9368824,35.9732588 20.7535882,35.0556706 20.3858824,34.2051412 C20.0192941,33.3568471 19.5230588,32.6169647 18.8960588,31.9888471 M18.4657647,38.9462 C18.2154118,39.5732 17.8711765,40.1152588 17.4319412,40.5723765 C16.9938235,41.0272588 16.4741176,41.3893765 15.8739412,41.6576118 C15.2748824,41.9280824 14.6344706,42.0622 13.9538235,42.0622 C13.2731765,42.0622 12.6383529,41.9280824 12.0471176,41.6576118 C11.4558824,41.3893765 10.9406471,41.0272588 10.5014118,40.5723765 C10.0644118,40.1152588 9.72017647,39.5732 9.46870588,38.9462 C9.21723529,38.3192 9.09205882,37.6564353 9.09205882,36.9579059 C9.09205882,36.2593765 9.21723529,35.5977294 9.46870588,34.9707294 C9.72017647,34.3448471 10.0644118,33.8027882 10.5014118,33.3456706 C10.9406471,32.8907882 11.4558824,32.5264353 12.0471176,32.2570824 C12.6383529,31.9888471 13.2731765,31.8547294 13.9538235,31.8547294 C14.6344706,31.8547294 15.2748824,31.9888471 15.8739412,32.2570824 C16.4741176,32.5264353 16.9938235,32.8907882 17.4319412,33.3456706 C17.8711765,33.8027882 18.2154118,34.3448471 18.4657647,34.9707294 C18.7172353,35.5977294 18.8424118,36.2593765 18.8424118,36.9579059 C18.8424118,37.6564353 18.7172353,38.3192 18.4657647,38.9462" id="Fill-40"></path>
                    <path d="M2.45826471,24.1729176 C1.99220588,24.1729176 1.60326471,24.3316235 1.29032353,24.6434471 C0.976264706,24.9563882 0.819794118,25.3464471 0.819794118,25.8113882 C0.819794118,26.2785647 0.971794118,26.6708588 1.27691176,26.9927412 C1.58091176,27.3168588 1.97432353,27.4766824 2.45826471,27.4766824 C2.94220588,27.4766824 3.34008824,27.3168588 3.65414706,26.9927412 C3.96708824,26.6708588 4.12355882,26.2785647 4.12355882,25.8113882 C4.12355882,25.3464471 3.96708824,24.9563882 3.65414706,24.6434471 C3.34008824,24.3316235 2.94220588,24.1729176 2.45826471,24.1729176" id="Fill-42"></path>
                </g>
                <polygon id="Fill-45" fill="#F7ADAF" points="103.116353 47.9801412 105.210824 47.9801412 105.210824 34.5504941 103.116353 34.5504941"></polygon>
                <g id="Group-50" transform="translate(72.647059, 30.012847)" fill="#F7ADAF">
                    <path d="M22.0733059,0.213358824 L19.9788353,1.36788824 L19.9788353,4.53753529 L17.6686588,4.53753529 L17.6686588,6.41741765 L19.9788353,6.41741765 L19.9788353,12.8371824 C19.9788353,13.8408294 20.0537176,14.6734765 20.2068353,15.3351235 C20.3588353,15.9990059 20.6226,16.5220647 20.9992471,16.9065353 C21.3747765,17.2921235 21.8810706,17.5637118 22.5170118,17.7257706 C23.1518353,17.8867118 23.9632471,17.9671824 24.9467765,17.9671824 L25.2429529,17.9671824 L25.2429529,16.0068294 C24.5801882,16.0068294 24.0437176,15.9721824 23.6313059,15.8995353 C23.2188941,15.8280059 22.8958941,15.6760059 22.6645412,15.4424176 C22.4320706,15.2099471 22.2756,14.8835941 22.1951294,14.4633588 C22.1146588,14.0431235 22.0733059,13.4910059 22.0733059,12.8103588 L22.0733059,6.41741765 L25.2429529,6.41741765 L25.2429529,4.53753529 L22.0733059,4.53753529 L22.0733059,0.213358824 Z" id="Fill-46"></path>
                    <path d="M11.8971294,6.74019412 C11.6110118,6.34566471 11.2712471,5.99807647 10.8767176,5.69295882 C10.4833059,5.38895882 10.0675412,5.12854706 9.62830588,4.91395882 C9.18907059,4.69937059 8.74201176,4.53619412 8.28489412,4.43001765 C7.82889412,4.32272353 7.38518824,4.26907647 6.95489412,4.26907647 C5.95348235,4.26907647 5.03030588,4.45348824 4.18871765,4.82007647 C3.34824706,5.18554706 2.62289412,5.68960588 2.01265882,6.32442941 C1.40465882,6.95813529 0.930776471,7.69801765 0.589894118,8.53848824 C0.250129412,9.38119412 0.0791294118,10.2853706 0.0791294118,11.2521353 C0.0791294118,12.2189 0.2546,13.1253118 0.603305882,13.9657824 C0.953129412,14.8073706 1.43148235,15.5472529 2.03948235,16.1820765 C2.64971765,16.8169 3.37507059,17.3198412 4.21554118,17.6864294 C5.05712941,18.0530176 5.97024706,18.2363118 6.95489412,18.2363118 C7.38518824,18.2363118 7.82889412,18.1815471 8.28489412,18.0742529 C8.74201176,17.9669588 9.18907059,17.8093706 9.62830588,17.6059588 C10.0675412,17.4003118 10.4833059,17.1443706 10.8767176,16.8392529 C11.2712471,16.5363706 11.6110118,16.1764882 11.8971294,15.7651941 L11.8971294,17.9669588 L13.9647765,17.9669588 L13.9647765,4.53619412 L11.8971294,4.53619412 L11.8971294,6.74019412 Z M11.7093647,13.2393118 C11.4590118,13.8674294 11.1103059,14.4083706 10.6621294,14.8654882 C10.2139529,15.3226059 9.68195294,15.6847235 9.06389412,15.9529588 C8.44695294,16.2200765 7.77971765,16.3553118 7.06218824,16.3553118 C6.38265882,16.3553118 5.74336471,16.2200765 5.14318824,15.9529588 C4.54301176,15.6847235 4.02442353,15.3226059 3.58518824,14.8654882 C3.14595294,14.4083706 2.80171765,13.8674294 2.55024706,13.2393118 C2.30101176,12.6145471 2.1736,11.9506647 2.1736,11.2521353 C2.1736,10.5547235 2.30101176,9.89084118 2.55024706,9.26495882 C2.80171765,8.63907647 3.14595294,8.09701765 3.58518824,7.64101765 C4.02442353,7.18278235 4.54301176,6.81954706 5.14318824,6.55242941 C5.74336471,6.28307647 6.38265882,6.14895882 7.06218824,6.14895882 C7.77971765,6.14895882 8.44695294,6.28307647 9.06389412,6.55242941 C9.68195294,6.81954706 10.2139529,7.18725294 10.6621294,7.65219412 C11.1103059,8.11825294 11.4590118,8.66142941 11.7093647,9.27837059 C11.9608353,9.89642941 12.0848941,10.5547235 12.0848941,11.2521353 C12.0848941,11.9506647 11.9608353,12.6145471 11.7093647,13.2393118 Z" id="Fill-48"></path>
                </g>
                <polygon id="Fill-51" fill="#F7ADAF" points="64.5607706 45.1594235 60.5316529 34.5496 58.2762412 34.5496 63.4867118 47.9792471 65.5543588 47.9792471 70.7648294 34.5496 68.5362412 34.5496"></polygon>
                <g id="Group-58" transform="translate(1.117647, 27.777553)" fill="#F7ADAF">
                    <path d="M53.1561882,8.51825882 C52.5303059,7.89237647 51.7915412,7.39949412 50.9410118,7.04184706 C50.0893647,6.6842 49.1807176,6.50425882 48.2139529,6.50425882 C47.2471882,6.50425882 46.3430118,6.6842 45.5014235,7.04184706 C44.6609529,7.39949412 43.9210706,7.89237647 43.2862471,8.51825882 C42.6491882,9.14637647 42.1529529,9.88625882 41.7953059,10.7345529 C41.4376588,11.5850824 41.2577176,12.5026706 41.2577176,13.4873176 C41.2577176,14.4730824 41.4376588,15.3906706 41.7953059,16.2412 C42.1529529,17.0906118 42.6491882,17.8304941 43.2862471,18.4574941 C43.9210706,19.0833765 44.6609529,19.5773765 45.5014235,19.9339059 C46.3430118,20.2915529 47.2471882,20.4703765 48.2139529,20.4703765 C49.1807176,20.4703765 50.0893647,20.2915529 50.9410118,19.9339059 C51.7915412,19.5773765 52.5303059,19.0833765 53.1561882,18.4574941 C53.7831882,17.8304941 54.2794235,17.0906118 54.6471294,16.2412 C55.0137176,15.3906706 55.1970118,14.4730824 55.1970118,13.4873176 C55.1970118,12.5026706 55.0137176,11.5850824 54.6471294,10.7345529 C54.2794235,9.88625882 53.7831882,9.14637647 53.1561882,8.51825882 M52.7258941,15.4756118 C52.4766588,16.1026118 52.1313059,16.6446706 51.6931882,17.1017882 C51.2539529,17.5566706 50.7342471,17.9187882 50.1351882,18.1870235 C49.5350118,18.4574941 48.8946,18.5916118 48.2139529,18.5916118 C47.5344235,18.5916118 46.8984824,18.4574941 46.3072471,18.1870235 C45.7160118,17.9187882 45.2007765,17.5566706 44.7637765,17.1017882 C44.3245412,16.6446706 43.9803059,16.1026118 43.7288353,15.4756118 C43.4784824,14.8486118 43.3521882,14.1858471 43.3521882,13.4873176 C43.3521882,12.7887882 43.4784824,12.1271412 43.7288353,11.5001412 C43.9803059,10.8742588 44.3245412,10.3322 44.7637765,9.87508235 C45.2007765,9.4202 45.7160118,9.05584706 46.3072471,8.78649412 C46.8984824,8.51825882 47.5344235,8.38414118 48.2139529,8.38414118 C48.8946,8.38414118 49.5350118,8.51825882 50.1351882,8.78649412 C50.7342471,9.05584706 51.2539529,9.4202 51.6931882,9.87508235 C52.1313059,10.3322 52.4766588,10.8742588 52.7258941,11.5001412 C52.9773647,12.1271412 53.1025412,12.7887882 53.1025412,13.4873176 C53.1025412,14.1858471 52.9773647,14.8486118 52.7258941,15.4756118" id="Fill-52"></path>
                    <path d="M31.9929824,6.50448235 C30.9725706,6.50448235 30.0717471,6.71124706 29.2927471,7.12254118 C28.5137471,7.53495294 27.8912176,8.08148235 27.4273941,8.76101176 L27.4273941,6.77271765 L25.3854529,6.77271765 L25.3854529,20.2023647 L27.4542176,20.2023647 L27.4542176,12.7621882 C27.4542176,12.1541882 27.5615118,11.5808353 27.7761,11.0432471 C27.9906882,10.5067765 28.2868647,10.0418353 28.6623941,9.64730588 C29.0379235,9.25389412 29.4861,8.94542353 30.0058059,8.71965882 C30.5232765,8.49724706 31.0876882,8.38436471 31.6979235,8.38436471 C33.0402176,8.38436471 34.0472176,8.78448235 34.7189235,9.58024706 C35.3895118,10.3771294 35.7259235,11.4288353 35.7259235,12.7353647 L35.7259235,20.2023647 L37.8215118,20.2023647 L37.8215118,12.7353647 C37.8215118,10.7850706 37.3018059,9.25836471 36.2635118,8.15748235 C35.2241,7.05548235 33.8002176,6.50448235 31.9929824,6.50448235" id="Fill-54"></path>
                    <path d="M2.64435294,0.702329412 C2.17829412,0.702329412 1.78823529,0.861035294 1.47529412,1.17285882 C1.16235294,1.4858 1.00588235,1.87585882 1.00588235,2.3408 C1.00588235,2.80797647 1.15788235,3.20027059 1.463,3.52215294 C1.76588235,3.84627059 2.16041176,4.00609412 2.64435294,4.00609412 C3.12829412,4.00609412 3.52617647,3.84627059 3.83911765,3.52215294 C4.15205882,3.20027059 4.30964706,2.80797647 4.30964706,2.3408 C4.30964706,1.87585882 4.15205882,1.4858 3.83911765,1.17285882 C3.52617647,0.861035294 3.12829412,0.702329412 2.64435294,0.702329412" id="Fill-56"></path>
                </g>
                <polygon id="Fill-59" fill="#F7ADAF" points="2.71476471 47.9801412 4.80923529 47.9801412 4.80923529 34.5504941 2.71476471 34.5504941"></polygon>
                <path d="M16.5336882,34.2820353 C15.5132765,34.2820353 14.6124529,34.4888 13.8334529,34.9000941 C13.0544529,35.3125059 12.4319235,35.8590353 11.9681,36.5385647 L11.9681,34.5502706 L9.92615882,34.5502706 L9.92615882,47.9799176 L11.9949235,47.9799176 L11.9949235,40.5397412 C11.9949235,39.9317412 12.1022176,39.3583882 12.3168059,38.8208 C12.5313941,38.2843294 12.8275706,37.8193882 13.2031,37.4248588 C13.5786294,37.0314471 14.0268059,36.7229765 14.5465118,36.4972118 C15.0639824,36.2748 15.6283941,36.1619176 16.2386294,36.1619176 C17.5809235,36.1619176 18.5879235,36.5620353 19.2596294,37.3578 C19.9302176,38.1546824 20.2666294,39.2063882 20.2666294,40.5129176 L20.2666294,47.9799176 L22.3622176,47.9799176 L22.3622176,40.5129176 C22.3622176,38.5626235 21.8425118,37.0359176 20.8042176,35.9350353 C19.7648059,34.8330353 18.3409235,34.2820353 16.5336882,34.2820353" id="Fill-60" fill="#F7ADAF"></path>
            </g>
        </g>
    </g>
</svg>