<?xml version="1.0" encoding="UTF-8"?>
<svg width="18px" height="18px" viewBox="0 0 18 18" version="1.1" xmlns="http://www.w3.org/2000/svg" xmlns:xlink="http://www.w3.org/1999/xlink">
    <!-- Generator: Sketch 52.5 (67469) - http://www.bohemiancoding.com/sketch -->
    <title>instagram - FontAwesome</title>
    <desc>Created with Sketch.</desc>
    <g id="Design" stroke="none" stroke-width="1" fill="none" fill-rule="evenodd">
        <g id="Contact" transform="translate(-842.000000, -852.000000)" fill="#FFFFFF">
            <g id="Group-7" transform="translate(757.000000, 838.000000)">
                <g id="Group-4-Copy" transform="translate(70.000000, 0.000000)">
                    <path d="M26.8571565,22.8571343 C26.8571565,21.2834718 25.5736728,19.9999881 24.0000102,19.9999881 C22.4263476,19.9999881 21.142864,21.2834718 21.142864,22.8571343 C21.142864,24.4307969 22.4263476,25.7142806 24.0000102,25.7142806 C25.5736728,25.7142806 26.8571565,24.4307969 26.8571565,22.8571343 Z M28.3973369,22.8571343 C28.3973369,25.290173 26.4330488,27.254461 24.0000102,27.254461 C21.5669716,27.254461 19.6026835,25.290173 19.6026835,22.8571343 C19.6026835,20.4240957 21.5669716,18.4598077 24.0000102,18.4598077 C26.4330488,18.4598077 28.3973369,20.4240957 28.3973369,22.8571343 Z M29.6026955,18.281236 C29.6026955,18.8504331 29.1451056,19.308023 28.5759085,19.308023 C28.0067114,19.308023 27.5491216,18.8504331 27.5491216,18.281236 C27.5491216,17.7120389 28.0067114,17.2544491 28.5759085,17.2544491 C29.1451056,17.2544491 29.6026955,17.7120389 29.6026955,18.281236 Z M24.0000102,15.825876 C22.7500087,15.825876 20.0714341,15.7254294 18.9442006,16.1718585 C18.5535752,16.3281087 18.2633962,16.5178411 17.9620566,16.8191807 C17.6607169,17.1205204 17.4709846,17.4106993 17.3147344,17.8013247 C16.8683053,18.9285582 16.9687518,21.6071329 16.9687518,22.8571343 C16.9687518,24.1071358 16.8683053,26.7857105 17.3147344,27.9129439 C17.4709846,28.3035694 17.6607169,28.5937483 17.9620566,28.895088 C18.2633962,29.1964276 18.5535752,29.38616 18.9442006,29.5424102 C20.0714341,29.9888393 22.7500087,29.8883927 24.0000102,29.8883927 C25.2500117,29.8883927 27.9285863,29.9888393 29.0558198,29.5424102 C29.4464453,29.38616 29.7366242,29.1964276 30.0379638,28.895088 C30.3393035,28.5937483 30.5290359,28.3035694 30.685286,27.9129439 C31.1317151,26.7857105 31.0312686,24.1071358 31.0312686,22.8571343 C31.0312686,21.6071329 31.1317151,18.9285582 30.685286,17.8013247 C30.5290359,17.4106993 30.3393035,17.1205204 30.0379638,16.8191807 C29.7366242,16.5178411 29.4464453,16.3281087 29.0558198,16.1718585 C27.9285863,15.7254294 25.2500117,15.825876 24.0000102,15.825876 Z M32.571449,22.8571343 C32.571449,24.0401715 32.5826097,25.2120479 32.5156454,26.395085 C32.448681,27.7678545 32.1361806,28.9843738 31.1317151,29.9888393 C30.1272497,30.9933048 28.9107304,31.3058051 27.5379609,31.3727695 C26.3549237,31.4397339 25.1830473,31.4285731 24.0000102,31.4285731 C22.8169731,31.4285731 21.6450967,31.4397339 20.4620596,31.3727695 C19.0892901,31.3058051 17.8727708,30.9933048 16.8683053,29.9888393 C15.8638398,28.9843738 15.5513394,27.7678545 15.4843751,26.395085 C15.4174107,25.2120479 15.4285714,24.0401715 15.4285714,22.8571343 C15.4285714,21.6740972 15.4174107,20.5022208 15.4843751,19.3191837 C15.5513394,17.9464142 15.8638398,16.7298949 16.8683053,15.7254294 C17.8727708,14.7209639 19.0892901,14.4084636 20.4620596,14.3414992 C21.6450967,14.2745348 22.8169731,14.2856956 24.0000102,14.2856956 C25.1830473,14.2856956 26.3549237,14.2745348 27.5379609,14.3414992 C28.9107304,14.4084636 30.1272497,14.7209639 31.1317151,15.7254294 C32.1361806,16.7298949 32.448681,17.9464142 32.5156454,19.3191837 C32.5826097,20.5022208 32.571449,21.6740972 32.571449,22.8571343 Z" id="instagram---FontAwesome"></path>
                </g>
            </g>
        </g>
    </g>
</svg>