<?xml version="1.0" encoding="UTF-8"?>
<svg width="163px" height="24px" viewBox="0 0 163 24" version="1.1" xmlns="http://www.w3.org/2000/svg" xmlns:xlink="http://www.w3.org/1999/xlink">
    <!-- Generator: Sketch 52.5 (67469) - http://www.bohemiancoding.com/sketch -->
    <title>Preciosa_Logotype_Black</title>
    <desc>Created with Sketch.</desc>
    <defs>
        <polygon id="path-1" points="0.0202904564 0.238647887 162.962801 0.238647887 162.962801 23.9797183 0.0202904564 23.9797183"></polygon>
    </defs>
    <g id="Design" stroke="none" stroke-width="1" fill="none" fill-rule="evenodd">
        <g id="Welcome---1" transform="translate(-769.000000, -56.000000)">
            <g id="Preciosa_Logotype_Black" transform="translate(769.000000, 56.000000)">
                <polyline id="Fill-1" fill="#FFFFFF" points="47.7282261 13.2206197 56.3739896 13.2206197 56.3739896 10.3494085 47.7282261 10.3494085 47.7282261 3.41171831 59.3052842 3.41171831 59.3052842 0.538140845 44.5561515 0.538140845 44.5561515 23.700507 59.7939461 23.700507 59.7939461 20.8292958 47.7282261 20.8292958 47.7282261 13.2206197"></polyline>
                <g id="Group-9">
                    <mask id="mask-2" fill="white">
                        <use xlink:href="#path-1"></use>
                    </mask>
                    <g id="Clip-3"></g>
                    <polygon id="Fill-2" fill="#FFFFFF" mask="url(#mask-2)" points="86.9530602 23.700507 90.0946992 23.700507 90.0946992 0.538140845 86.9530602 0.538140845"></polygon>
                    <path d="M107.260425,21.0679437 C102.254093,21.0679437 98.5253838,17.088338 98.5253838,12.119662 C98.5253838,7.15030986 102.254093,3.16833803 107.260425,3.16833803 C112.247481,3.16833803 115.962326,7.15030986 115.962326,12.119662 C115.962326,17.088338 112.247481,21.0679437 107.260425,21.0679437 Z M107.260425,0.238647887 C100.588585,0.238647887 95.3205062,5.56766197 95.3205062,12.119662 C95.3205062,18.6689577 100.588585,24 107.260425,24 C113.931589,24 119.197639,18.6689577 119.197639,12.119662 C119.197639,5.56766197 113.931589,0.238647887 107.260425,0.238647887 Z" id="Fill-4" fill="#FFFFFF" mask="url(#mask-2)"></path>
                    <path d="M8.07052905,13.1131268 L3.17478008,13.1131268 L3.17478008,3.40935211 L8.07052905,3.40935211 C11.5513568,3.40935211 13.6497282,5.55109859 13.6497282,8.25904225 C13.6497282,10.9713803 11.4975871,13.1131268 8.07052905,13.1131268 Z M8.1618361,0.538140845 L0,0.538140845 L0,23.700507 L3.17478008,23.700507 L3.17478008,15.984338 L8.1618361,15.984338 C13.2662386,15.984338 16.8546058,12.4820282 16.8546058,8.25904225 C16.8546058,4.0404507 13.2662386,0.538140845 8.1618361,0.538140845 Z" id="Fill-5" fill="#FFFFFF" mask="url(#mask-2)"></path>
                    <path d="M147.509589,15.1707042 L151.837205,4.20405634 L156.164822,15.1707042 L147.509589,15.1707042 Z M153.561218,0.538140845 L150.11556,0.538140845 L140.714315,23.700507 L144.084898,23.700507 L146.333081,18.1007324 L157.339301,18.1007324 L159.594247,23.700507 L162.962801,23.700507 L153.561218,0.538140845 Z" id="Fill-6" fill="#FFFFFF" mask="url(#mask-2)"></path>
                    <path d="M75.0510166,21.0679437 C69.9885477,21.0679437 66.1147614,17.088338 66.1147614,12.119662 C66.1147614,7.15030986 69.9885477,3.16833803 75.0510166,3.16833803 C77.6099813,3.16833803 79.2054876,3.93329577 80.7259191,4.72360563 L82.0008361,2.19819718 C79.9443983,0.958647887 77.3854336,0.238647887 74.9759419,0.238647887 C68.2811058,0.238647887 62.912251,5.56766197 62.912251,12.119662 C62.912251,18.6689577 68.2811058,24 74.9759419,24 C77.5420083,24 80.2392863,23.1931268 82.3701224,21.8021408 L81.1046743,19.2905915 C79.5189751,20.2448451 77.6799834,21.0679437 75.0510166,21.0679437" id="Fill-7" fill="#FFFFFF" mask="url(#mask-2)"></path>
                    <path d="M131.754726,10.2980282 C128.57555,9.24101408 126.505247,8.37329577 126.505247,6.14974648 C126.505247,4.38895775 127.876205,3.12405634 130.68339,3.12405634 C132.629245,3.12405634 134.753656,3.82546479 135.988668,4.38692958 L137.022805,1.76315493 C135.530442,1.04991549 132.928867,0.238647887 130.624548,0.238647887 C126.264129,0.238647887 123.270272,2.62377465 123.270272,6.21769014 C123.270272,10.4288451 127.169759,12.0652394 130.030714,13.0147606 C132.994473,13.9970704 135.520973,14.9743099 135.520973,17.4436056 C135.520973,19.5667606 133.665749,21.0351549 130.503143,21.0351549 C127.852533,21.0351549 125.05989,19.9125634 123.433948,19.0661408 L122.350776,21.6409014 C124.666593,23.0460845 127.789633,24 130.589716,24 C135.270724,24 138.774548,21.3579718 138.774548,17.4436056 C138.774548,13.3186479 135.207147,11.448 131.754726,10.2980282" id="Fill-8" fill="#FFFFFF" mask="url(#mask-2)"></path>
                </g>
                <path d="M24.8125228,12.1497465 L24.8125228,3.40935211 L30.5016286,3.40935211 C33.327751,3.40935211 35.1850041,5.34523944 35.1850041,7.78647887 C35.1850041,9.86535211 33.4866929,12.1497465 30.4573278,12.1497465 L24.8125228,12.1497465 Z M38.3570788,7.78647887 C38.3570788,3.88157746 35.1941349,0.538140845 30.6000373,0.538140845 L21.6407863,0.538140845 L21.6407863,23.700507 L24.8125228,23.700507 L24.8125228,15.0212958 L29.695083,15.0212958 L35.3534149,23.700507 L39.1101929,23.700507 L39.1101929,23.651493 L33.0704004,14.555831 C36.1650332,13.7584225 38.3570788,10.9548169 38.3570788,7.78647887 Z" id="Fill-10" fill="#FFFFFF"></path>
            </g>
        </g>
    </g>
</svg>
