<?xml version="1.0" encoding="UTF-8"?>
<svg width="18px" height="17px" viewBox="0 0 18 17" version="1.1" xmlns="http://www.w3.org/2000/svg" xmlns:xlink="http://www.w3.org/1999/xlink">
    <!-- Generator: Sketch 52.5 (67469) - http://www.bohemiancoding.com/sketch -->
    <title>linkedin - FontAwesome</title>
    <desc>Created with Sketch.</desc>
    <g id="Design" stroke="none" stroke-width="1" fill="none" fill-rule="evenodd">
        <g id="Contact" transform="translate(-911.000000, -851.000000)" fill="#FFFFFF">
            <g id="Group-7" transform="translate(757.000000, 838.000000)">
                <g id="Group-4-Copy-2" transform="translate(140.000000, 0.000000)">
                    <path d="M18.3236654,18.8325772 L18.3236654,29.8928582 L14.6406253,29.8928582 L14.6406253,18.8325772 L18.3236654,18.8325772 Z M18.5580406,15.4173945 C18.5692014,16.4776636 17.765629,17.3258789 16.4821453,17.3258789 L16.4598239,17.3258789 C15.2209831,17.3258789 14.4285714,16.4776636 14.4285714,15.4173945 C14.4285714,14.3348039 15.2544653,13.5089101 16.5044668,13.5089101 C17.765629,13.5089101 18.5468799,14.3348039 18.5580406,15.4173945 Z M24.0267972,20.4046233 C24.5113066,19.6472163 25.3853412,18.5758804 27.3415333,18.5758804 C29.7634111,18.5758804 31.571449,20.1607037 31.571449,23.5535649 L31.571449,29.8928582 L27.8995696,29.8928582 L27.8995696,23.9776726 C27.8995696,22.4932958 27.3638547,21.4776696 26.0357281,21.4776696 C25.0201019,21.4776696 24.4174226,22.158474 24.1495652,22.8169569 C24.0602793,23.0624929 24.0267972,23.386154 24.0267972,23.7209758 L24.0267972,29.8928582 L20.3549178,29.8928582 C20.3995607,19.8705248 20.3549178,18.8325772 20.3549178,18.8325772 L24.0267972,18.8325772 L24.0267972,20.4046233 Z" id="linkedin---FontAwesome"></path>
                </g>
            </g>
        </g>
    </g>
</svg>